# xmcd
#
# Track frame offsets:
#	150
#	27923
#	49477
#	64488
#	79571
#	91439
#	106092
#	124186
#	135011
#	148238
#	169808
#	183754
#	198868
#	214733
#	230842
#	249709
#
# Disc length: 3518 seconds
#
# Revision: 0
# Processed by: cddbd v1.5.2PL0 Copyright (c) Steve Scherf et al.
# Submitted via: EasyCDDAExtractor 11.9.9.666
#
DISCID=e30dbc10
DTITLE=Musical Encontro - Festival do Chopp
DYEAR=1900
DGENRE=Other
TTITLE0=Só as melhores
TTITLE1=Trombones em festa
TTITLE2=Anjo
TTITLE3=Chorando de amor
TTITLE4=Jetz Jái
TTITLE5=Festival do Chopp
TTITLE6=Tô de saco cheio
TTITLE7=Dobrando guela seca
TTITLE8=Sul'le Scalle Del Oficio
TTITLE9=Trombones em festa (Dance)
TTITLE10=Coração
TTITLE11=Voltando ao Kerb
TTITLE12=Vira copos
TTITLE13=Sô feinho mas tô na moda
TTITLE14=Dolomiten Gold
TTITLE15=Du Gehörst In Meine Arme
EXTD=
EXTT0=
EXTT1=
EXTT2=
EXTT3=
EXTT4=
EXTT5=
EXTT6=
EXTT7=
EXTT8=
EXTT9=
EXTT10=
EXTT11=
EXTT12=
EXTT13=
EXTT14=
EXTT15=
PLAYORDER=
